<svg width="100" height="100" viewBox="0 0 100 100" fill="none" xmlns="http://www.w3.org/2000/svg">
<rect width="100" height="100" fill="white"/>
<path d="M43.1472 69H20V31H26.5893V63.1319H43.1472V69Z" fill="#252525"/>
<path d="M68.0741 69H49.0945V31H67.5672C74.4381 31 78.2679 35.3298 78.2679 40.6852C78.2679 45.4708 75.2266 48.6612 71.7348 49.4018C75.7335 50.0285 79 54.0735 79 58.7451C79 64.6132 75.114 69 68.0741 69ZM66.2156 46.7241C69.5947 46.7241 71.5096 44.6732 71.5096 41.8246C71.5096 38.976 69.5947 36.8681 66.2156 36.8681H55.6839V46.7241H66.2156ZM66.4972 63.1319C70.1016 63.1319 72.2417 61.1379 72.2417 57.8336C72.2417 54.985 70.2705 52.5922 66.4972 52.5922H55.6839V63.1319H66.4972Z" fill="#235370"/>
</svg>
